<svg xmlns="http://www.w3.org/2000/svg" width="17.6" height="18.578" viewBox="0 0 17.6 18.578"><defs><style>.a{fill:none;}.b{fill:#787e8c;}</style></defs><g transform="translate(-4.5 -3)"><path class="a" d="M19.367,8.933A2.933,2.933,0,1,1,16.433,6,2.933,2.933,0,0,1,19.367,8.933Z" transform="translate(-3.133 -1.044)"/><path class="b" d="M13.3,3a4.889,4.889,0,1,0,4.889,4.889A4.894,4.894,0,0,0,13.3,3Zm0,7.822a2.933,2.933,0,1,1,2.933-2.933A2.937,2.937,0,0,1,13.3,10.822Zm8.8,10.755V20.6a6.854,6.854,0,0,0-6.844-6.844H11.344A6.853,6.853,0,0,0,4.5,20.6v.978H6.456V20.6a4.894,4.894,0,0,1,4.889-4.889h3.911A4.894,4.894,0,0,1,20.144,20.6v.978Z"/></g></svg>