<svg xmlns="http://www.w3.org/2000/svg" width="14.824" height="19.271" viewBox="0 0 14.824 19.271"><defs><style>.a{fill:#787e8c;}</style></defs><path class="a" d="M11.964.794V5.244h4.447a.729.729,0,0,0-.222-.525L12.535,1.064a.647.647,0,0,0-.571-.27Zm-8.9,0A1.5,1.5,0,0,0,1.588,2.281v16.3a1.5,1.5,0,0,0,1.481,1.482H14.93a1.5,1.5,0,0,0,1.481-1.482V6.726H11.227a.741.741,0,0,1-.745-.738V.8ZM5.287,8.209H12.7a.741.741,0,1,1,0,1.482H5.287a.741.741,0,0,1,0-1.482Zm-.071,2.963c.024,0,.047,0,.071,0H12.7a.742.742,0,0,1,0,1.483H5.287a.742.742,0,0,1-.071-1.483Zm0,2.965c.024,0,.047,0,.071,0H12.7a.741.741,0,1,1,0,1.482H5.287a.742.742,0,0,1-.071-1.482Z" transform="translate(-1.588 -0.794)"/></svg>