<svg xmlns="http://www.w3.org/2000/svg" width="16.438" height="19.177" viewBox="0 0 16.438 19.177"><defs><style>.a{fill:#787e8c;}</style></defs><g transform="translate(-4.5 -2.25)"><path class="a" d="M5.87,21.427h8.219a1.371,1.371,0,0,0,1.37-1.37V18h-1.37v2.055H5.87V3.62h8.219V5.674h1.37V3.62a1.371,1.371,0,0,0-1.37-1.37H5.87A1.371,1.371,0,0,0,4.5,3.62V20.057A1.371,1.371,0,0,0,5.87,21.427Z"/><path class="a" d="M18.5,18.5l2.457-2.456H11.25v-1.37h9.707L18.5,12.219l.968-.969,4.109,4.109-4.109,4.109Z" transform="translate(-2.641 -3.521)"/></g></svg>